<svg width="510" height="484" viewBox="0 0 510 484" fill="none" xmlns="http://www.w3.org/2000/svg">
<path d="M15.8333 94.5833V0H135C75.8941 23.355 49.7789 44.0387 15.8333 94.5833Z" fill="white"/>
<path d="M15.8333 278.333V483.333H210.417C108.777 425.557 68.3654 378.765 15.8333 278.333Z" fill="white"/>
<path d="M283.75 97.219C282.5 90.8333 267.083 90.8333 252.083 97.219H283.75Z" fill="white"/>
<path fill-rule="evenodd" clip-rule="evenodd" d="M298.75 99.1667C303.526 91.7248 305.612 87.1557 306.667 81.6667V71.25C302.135 43.6808 288.923 35.9454 253.333 30.8333C242.529 18.1841 231.574 14.2962 205.417 11.6667H181.25C120.057 18.9626 90.9321 34.59 45 75.8333C64.4361 66.8484 75.6633 62.5443 94.5833 57.9167V61.25C28.5928 95.1097 8.6067 135.468 0 198.333C24.6143 145.719 38.7385 118.88 81.6667 99.5833V102.5C-6.78841 201.468 30.4167 392.083 272.917 482.917H410H449.167V431.25C432.199 440.953 422.006 447.748 410 447.5H341.25C253.306 442.763 109.583 341.25 109.583 251.667C227.364 427.136 387.5 477.917 509.583 391.25C318.753 399.445 161.667 274.583 141.667 196.667C177.691 241.627 201.683 267.323 232.5 283.333H349.167C376.25 288.333 384.983 295.542 393.945 315.417V283.333V195V162.917C386.457 181.382 378.434 189.456 349.167 195H178.75L178.333 193.75C151.676 83.3739 297.943 48.7754 299.165 96.1977L298.75 99.1667ZM201.25 42.5C201.25 26.25 228.333 26.6667 228.333 42.5C228.333 58.3333 201.25 58.75 201.25 42.5ZM258.75 50.4167C260.331 42.1247 262.783 40.8266 269.583 43.75C269.014 49.8753 267.016 51.6905 258.75 50.4167Z" fill="white"/>
<path d="M407.5 97.219H318.333C335.502 53.9817 315.805 27.5111 269.583 17.5C262.758 10.3104 257.474 6.45482 247.083 1.66667V0H407.5H449.583V151.667C437.163 122.614 422.5 97.219 407.5 97.219Z" fill="white"/>
</svg>
