<svg width="513" height="485" viewBox="0 0 513 485" fill="none" xmlns="http://www.w3.org/2000/svg">
<path d="M16.8333 95.5833V1H136C76.8941 24.355 50.7789 45.0387 16.8333 95.5833Z" fill="#3B305C"/>
<path d="M408.5 1V98.219H319.333C336.502 54.9817 316.805 28.5111 270.583 18.5C263.758 11.3104 258.474 7.45482 248.083 2.66667V1H408.5Z" fill="#3B305C"/>
<path d="M16.8333 279.333V484.333H211.417C109.777 426.557 69.3654 379.765 16.8333 279.333Z" fill="#3B305C"/>
<path fill-rule="evenodd" clip-rule="evenodd" d="M299.75 100.167C304.526 92.7248 306.612 88.1557 307.667 82.6667V72.25C303.135 44.6808 289.923 36.9454 254.333 31.8333C243.529 19.1841 232.574 15.2962 206.417 12.6667H182.25C121.057 19.9626 91.9321 35.59 46 76.8333C65.4361 67.8484 76.6633 63.5443 95.5833 58.9167V62.25C29.5928 96.1097 9.6067 136.468 1 199.333C25.6143 146.719 39.7385 119.88 82.6667 100.583V103.5C-5.78841 202.468 31.4167 393.083 273.917 483.917H411V448.5H342.25C254.306 443.763 110.583 342.25 110.583 252.667C228.364 428.136 388.5 478.917 510.583 392.25C319.753 400.445 162.667 275.583 142.667 197.667C178.691 242.627 202.683 268.323 233.5 284.333H350.167H394.945V196H350.167H179.75L179.333 194.75C152.676 84.3739 298.943 49.7754 300.165 97.1977L299.75 100.167ZM202.25 43.5C202.25 27.25 229.333 27.6667 229.333 43.5C229.333 59.3333 202.25 59.75 202.25 43.5ZM259.75 51.4167C261.331 43.1247 263.783 41.8266 270.583 44.75C270.014 50.8753 268.016 52.6905 259.75 51.4167Z" fill="#3B305C"/>
<path d="M284.75 98.219C283.5 91.8333 268.083 91.8333 253.083 98.219H284.75Z" fill="#3B305C"/>
<path d="M408.5 1V98.219C423.5 98.219 438.163 123.614 450.583 152.667V1H408.5Z" fill="#3B305C"/>
<path d="M411 448.5V483.917H450.167V432.25C433.199 441.953 423.006 448.748 411 448.5Z" fill="#3B305C"/>
<path d="M394.945 316.417V284.333H350.167C377.25 289.333 385.983 296.542 394.945 316.417Z" fill="#3B305C"/>
<path d="M394.945 196V163.917C387.457 182.382 379.434 190.456 350.167 196H394.945Z" fill="#3B305C"/>
<path d="M247.667 1H248.083M408.5 1V98.219M408.5 1H248.083M408.5 1H450.583V152.667C438.163 123.614 423.5 98.219 408.5 98.219M408.5 98.219H319.333C336.502 54.9817 316.805 28.5111 270.583 18.5C263.758 11.3104 258.474 7.45482 248.083 2.66667V1M411 483.917H273.917C31.4167 393.083 -5.78841 202.468 82.6667 103.5V100.583C39.7385 119.88 25.6143 146.719 1 199.333C9.6067 136.468 29.5928 96.1097 95.5833 62.25V58.9167C76.6633 63.5443 65.4361 67.8484 46 76.8333C91.9321 35.59 121.057 19.9626 182.25 12.6667H206.417C232.574 15.2962 243.529 19.1841 254.333 31.8333C289.923 36.9454 303.135 44.6808 307.667 72.25V82.6667C306.612 88.1557 304.526 92.7248 299.75 100.167L300.165 97.1977M411 483.917V448.5M411 483.917H450.167V432.25C433.199 441.953 423.006 448.748 411 448.5M411 448.5H342.25C254.306 443.763 110.583 342.25 110.583 252.667C228.364 428.136 388.5 478.917 510.583 392.25C319.753 400.445 162.667 275.583 142.667 197.667C178.691 242.627 202.683 268.323 233.5 284.333H350.167M394.945 284.333V196M394.945 284.333V316.417C385.983 296.542 377.25 289.333 350.167 284.333M394.945 284.333H350.167M394.945 196V163.917C387.457 182.382 379.434 190.456 350.167 196M394.945 196H350.167M300.167 97.25C300.166 97.2325 300.166 97.2151 300.165 97.1977M300.165 97.1977C298.943 49.7754 152.676 84.3739 179.333 194.75L179.75 196H350.167M202.25 43.5C202.25 27.25 229.333 27.6667 229.333 43.5C229.333 59.3333 202.25 59.75 202.25 43.5ZM259.75 51.4167C261.331 43.1247 263.783 41.8266 270.583 44.75C270.014 50.8753 268.016 52.6905 259.75 51.4167ZM16.8333 279.333V484.333H211.417C109.777 426.557 69.3654 379.765 16.8333 279.333ZM16.8333 95.5833V1H136C76.8941 24.355 50.7789 45.0387 16.8333 95.5833ZM284.75 98.219C283.5 91.8333 268.083 91.8333 253.083 98.219H284.75Z" stroke="#3B305C"/>
</svg>
