<svg width="513" height="486" viewBox="0 0 513 486" fill="none" xmlns="http://www.w3.org/2000/svg">
<path d="M16.8333 95.9167V1.33334H136C76.8941 24.6883 50.7789 45.372 16.8333 95.9167Z" fill="white"/>
<path d="M408.5 1.33334V98.5523H319.333C336.502 55.315 316.805 28.8444 270.583 18.8333C263.758 11.6437 258.474 7.78816 248.083 3.00001V1.33334H408.5Z" fill="white"/>
<path d="M16.8333 279.667V484.667H211.417C109.777 426.891 69.3654 380.098 16.8333 279.667Z" fill="white"/>
<path fill-rule="evenodd" clip-rule="evenodd" d="M299.75 100.5C304.526 93.0581 306.612 88.4891 307.667 83V72.5833C303.135 45.0142 289.923 37.2788 254.333 32.1667C243.529 19.5174 232.574 15.6295 206.417 13H182.25C121.057 20.296 91.9321 35.9233 46 77.1667C65.4361 68.1817 76.6633 63.8777 95.5833 59.25V62.5833C29.5928 96.443 9.6067 136.801 1 199.667C25.6143 147.052 39.7385 120.213 82.6667 100.917V103.833C-5.78841 202.801 31.4167 393.417 273.917 484.25H411V448.833H342.25C254.306 444.096 110.583 342.583 110.583 253C228.364 428.469 388.5 479.25 510.583 392.583C319.753 400.778 162.667 275.917 142.667 198C178.691 242.961 202.683 268.657 233.5 284.667H350.167H394.945V196.333H350.167H179.75L179.333 195.083C152.676 84.7073 298.943 50.1088 300.165 97.531L299.75 100.5ZM202.25 43.8333C202.25 27.5833 229.333 28 229.333 43.8333C229.333 59.6667 202.25 60.0833 202.25 43.8333ZM259.75 51.75C261.331 43.4581 263.783 42.1599 270.583 45.0833C270.014 51.2087 268.016 53.0239 259.75 51.75Z" fill="white"/>
<path d="M284.75 98.5523C283.5 92.1667 268.083 92.1667 253.083 98.5523H284.75Z" fill="white"/>
<path d="M408.5 1.33334V98.5523C423.5 98.5523 438.163 123.947 450.583 153V1.33334H408.5Z" fill="white"/>
<path d="M411 448.833V484.25H450.167V432.583C433.199 442.286 423.006 449.082 411 448.833Z" fill="white"/>
<path d="M394.945 316.75V284.667H350.167C377.25 289.667 385.983 296.876 394.945 316.75Z" fill="white"/>
<path d="M394.945 196.333V164.25C387.457 182.715 379.434 190.79 350.167 196.333H394.945Z" fill="white"/>
<path d="M247.667 1.33334H248.083M408.5 1.33334V98.5523M408.5 1.33334H248.083M408.5 1.33334H450.583V153C438.163 123.947 423.5 98.5523 408.5 98.5523M408.5 98.5523H319.333C336.502 55.315 316.805 28.8444 270.583 18.8333C263.758 11.6437 258.474 7.78816 248.083 3.00001V1.33334M411 484.25H273.917C31.4167 393.417 -5.78841 202.801 82.6667 103.833V100.917C39.7385 120.213 25.6143 147.052 1 199.667C9.6067 136.801 29.5928 96.443 95.5833 62.5833V59.25C76.6633 63.8777 65.4361 68.1817 46 77.1667C91.9321 35.9233 121.057 20.296 182.25 13H206.417C232.574 15.6295 243.529 19.5174 254.333 32.1667C289.923 37.2788 303.135 45.0142 307.667 72.5833V83C306.612 88.4891 304.526 93.0581 299.75 100.5L300.165 97.531M411 484.25V448.833M411 484.25H450.167V432.583C433.199 442.286 423.006 449.082 411 448.833M411 448.833H342.25C254.306 444.096 110.583 342.583 110.583 253C228.364 428.469 388.5 479.25 510.583 392.583C319.753 400.778 162.667 275.917 142.667 198C178.691 242.961 202.683 268.657 233.5 284.667H350.167M394.945 284.667V196.333M394.945 284.667V316.75C385.983 296.876 377.25 289.667 350.167 284.667M394.945 284.667H350.167M394.945 196.333V164.25C387.457 182.715 379.434 190.79 350.167 196.333M394.945 196.333H350.167M300.167 97.5833C300.166 97.5659 300.166 97.5484 300.165 97.531M300.165 97.531C298.943 50.1088 152.676 84.7073 179.333 195.083L179.75 196.333H350.167M202.25 43.8333C202.25 27.5833 229.333 28 229.333 43.8333C229.333 59.6667 202.25 60.0833 202.25 43.8333ZM259.75 51.75C261.331 43.4581 263.783 42.1599 270.583 45.0833C270.014 51.2087 268.016 53.0239 259.75 51.75ZM16.8333 279.667V484.667H211.417C109.777 426.891 69.3654 380.098 16.8333 279.667ZM16.8333 95.9167V1.33334H136C76.8941 24.6883 50.7789 45.372 16.8333 95.9167ZM284.75 98.5523C283.5 92.1667 268.083 92.1667 253.083 98.5523H284.75Z" stroke="white"/>
</svg>
