<svg width="615" height="582" viewBox="0 0 615 582" fill="none" xmlns="http://www.w3.org/2000/svg">
<path d="M20 114.5V1H163C92.0729 29.026 60.7347 53.8464 20 114.5Z" fill="black"/>
<path d="M490 1V117.663H383C403.603 65.778 379.966 34.0133 324.5 22C316.31 13.3724 309.968 8.74578 297.5 3V1H490Z" fill="black"/>
<path d="M20 335V581H253.5C131.532 511.669 83.0385 455.518 20 335Z" fill="black"/>
<path fill-rule="evenodd" clip-rule="evenodd" d="M359.5 120C365.231 111.07 367.734 105.587 369 99V86.5C363.562 53.417 347.707 44.1345 305 38C292.034 22.8209 278.889 18.1554 247.5 15H218.5C145.069 23.7552 110.119 42.508 55 92C78.3233 81.218 91.7959 76.0532 114.5 70.5V74.5C35.3114 115.132 11.328 163.561 1 239C30.5372 175.863 47.4862 143.656 99 120.5V124C-7.1461 242.761 37.5 471.5 328.5 580.5H493V538H410.5C304.967 532.315 132.5 410.5 132.5 303C273.837 513.563 466 574.5 612.5 470.5C383.503 480.334 195 330.5 171 237C214.23 290.953 243.019 321.788 280 341H473.734V235H215.5L215 233.5C183.012 101.049 358.531 59.5305 359.998 116.437L359.5 120ZM242.5 52C242.5 32.5 275 33 275 52C275 71 242.5 71.5 242.5 52ZM311.5 61.5C313.397 51.5497 316.34 49.9919 324.5 53.5C323.817 60.8504 321.419 63.0286 311.5 61.5Z" fill="black"/>
<path d="M341.5 117.663C340 110 321.5 110 303.5 117.663H341.5Z" fill="black"/>
<path d="M297 1H297.5M297.5 1H490V117.663H383C403.603 65.778 379.966 34.0133 324.5 22C316.31 13.3724 309.968 8.74578 297.5 3V1ZM360 116.5C360 116.479 359.999 116.458 359.998 116.437M359.998 116.437C358.531 59.5305 183.012 101.049 215 233.5L215.5 235H473.734V341H280C243.019 321.788 214.23 290.953 171 237C195 330.5 383.503 480.334 612.5 470.5C466 574.5 273.837 513.563 132.5 303C132.5 410.5 304.967 532.315 410.5 538H493V580.5H328.5C37.5 471.5 -7.1461 242.761 99 124V120.5C47.4862 143.656 30.5372 175.863 1 239C11.328 163.561 35.3114 115.132 114.5 74.5V70.5C91.7959 76.0532 78.3234 81.218 55 92C110.119 42.508 145.069 23.7552 218.5 15H247.5C278.889 18.1554 292.034 22.8209 305 38C347.707 44.1345 363.562 53.417 369 86.5V99C367.734 105.587 365.231 111.07 359.5 120L359.998 116.437ZM242.5 52C242.5 32.5 275 33 275 52C275 71 242.5 71.5 242.5 52ZM311.5 61.5C313.397 51.5497 316.34 49.9919 324.5 53.5C323.817 60.8504 321.419 63.0286 311.5 61.5ZM20 335V581H253.5C131.532 511.669 83.0385 455.518 20 335ZM20 114.5V1H163C92.0729 29.026 60.7347 53.8464 20 114.5ZM341.5 117.663C340 110 321.5 110 303.5 117.663H341.5Z" stroke="black"/>
</svg>
